<?xml version="1.0" encoding="UTF-8" standalone="no"?>
<svg width="55px" height="55px" viewBox="0 0 55 55" version="1.1" xmlns="http://www.w3.org/2000/svg" xmlns:xlink="http://www.w3.org/1999/xlink">
    <!-- Generator: Sketch 40.3 (33839) - http://www.bohemiancoding.com/sketch -->
    <title>plus - simple-line-icons</title>
    <desc>Created with Sketch.</desc>
    <defs></defs>
    <g id="Symbols" stroke="none" stroke-width="1" fill="none" fill-rule="evenodd">
        <g id="plus---simple-line-icons" fill="#F9F9F9">
            <path d="M27.1,0.375 C23.3734189,0.375 19.866618,1.07811797 16.5794922,2.484375 C13.2923664,3.89063203 10.4271607,5.81541747 7.98378906,8.25878906 C5.54041747,10.7021607 3.61563203,13.5673664 2.209375,16.8544922 C0.803117969,20.141618 0.1,23.6484189 0.1,27.375 C0.1,31.1015811 0.803117969,34.608382 2.209375,37.8955078 C3.61563203,41.1826336 5.54041747,44.0478393 7.98378906,46.4912109 C10.4271607,48.9345825 13.2923664,50.859368 16.5794922,52.265625 C19.866618,53.671882 23.3734189,54.375 27.1,54.375 C30.8265811,54.375 34.333382,53.671882 37.6205078,52.265625 C40.9076336,50.859368 43.7728393,48.9345825 46.2162109,46.4912109 C48.6595825,44.0478393 50.584368,41.1826336 51.990625,37.8955078 C53.396882,34.608382 54.1,31.1015811 54.1,27.375 C54.1,23.6484189 53.396882,20.141618 51.990625,16.8544922 C50.584368,13.5673664 48.6595825,10.7021607 46.2162109,8.25878906 C43.7728393,5.81541747 40.9076336,3.89063203 37.6205078,2.484375 C34.333382,1.07811797 30.8265811,0.375 27.1,0.375 L27.1,0.375 Z M27.1,51.0527344 C23.8304524,51.0527344 20.7631003,50.4287172 17.8978516,49.1806641 C15.0326029,47.9326109 12.5365341,46.2363388 10.4095703,44.0917969 C8.28260655,41.9472549 6.59512343,39.4423971 5.34707031,36.5771484 C4.0990172,33.7118997 3.475,30.6445476 3.475,27.375 C3.475,24.1054524 4.0990172,21.0381003 5.34707031,18.1728516 C6.59512343,15.3076029 8.28260655,12.8115341 10.4095703,10.6845703 C12.5365341,8.55760655 15.0326029,6.87012343 17.8978516,5.62207031 C20.7631003,4.3740172 23.8304524,3.75 27.1,3.75 C30.3695476,3.75 33.4368997,4.3740172 36.3021484,5.62207031 C39.1673971,6.87012343 41.6634659,8.55760655 43.7904297,10.6845703 C45.9173934,12.8115341 47.6048766,15.3076029 48.8529297,18.1728516 C50.1009828,21.0381003 50.725,24.1054524 50.725,27.375 C50.725,30.6445476 50.1009828,33.7118997 48.8529297,36.5771484 C47.6048766,39.4423971 45.9173934,41.9472549 43.7904297,44.0917969 C41.6634659,46.2363388 39.1673971,47.9326109 36.3021484,49.1806641 C33.4368997,50.4287172 30.3695476,51.0527344 27.1,51.0527344 L27.1,51.0527344 Z M38.9125,25.6875 L28.7875,25.6875 L28.7875,15.5625 C28.7875,15.1054665 28.6205095,14.7099626 28.2865234,14.3759766 C27.9525374,14.0419905 27.5570335,13.875 27.1,13.875 C26.6429665,13.875 26.2474626,14.0419905 25.9134766,14.3759766 C25.5794905,14.7099626 25.4125,15.1054665 25.4125,15.5625 L25.4125,25.6875 L15.2875,25.6875 C14.8304665,25.6875 14.4349626,25.8544905 14.1009766,26.1884766 C13.7669905,26.5224626 13.6,26.9179665 13.6,27.375 C13.6,27.8320335 13.7669905,28.2275374 14.1009766,28.5615234 C14.4349626,28.8955095 14.8304665,29.0625 15.2875,29.0625 L25.4125,29.0625 L25.4125,39.1875 C25.4125,39.6445335 25.5794905,40.0400374 25.9134766,40.3740234 C26.2474626,40.7080095 26.6429665,40.875 27.1,40.875 C27.5570335,40.875 27.9525374,40.7080095 28.2865234,40.3740234 C28.6205095,40.0400374 28.7875,39.6445335 28.7875,39.1875 L28.7875,29.0625 L38.9125,29.0625 C39.3695335,29.0625 39.7650374,28.8955095 40.0990234,28.5615234 C40.4330095,28.2275374 40.6,27.8320335 40.6,27.375 C40.6,26.9179665 40.4330095,26.5224626 40.0990234,26.1884766 C39.7650374,25.8544905 39.3695335,25.6875 38.9125,25.6875 L38.9125,25.6875 Z"></path>
        </g>
    </g>
</svg>